<svg xmlns="http://www.w3.org/2000/svg" viewBox="0 0 400 300" role="img" aria-label="pasta">
  <ellipse cx="200" cy="244" rx="120" ry="15" fill="#2B2B26" opacity="0.08"/>
  <circle cx="200" cy="148" r="110" fill="#FFFFFF" stroke="#E4DBC7" stroke-width="5"/>
  <circle cx="200" cy="148" r="88" fill="none" stroke="#E4DBC7" stroke-width="2"/>
  
  <g fill="none" stroke-linecap="round">
    <path d="M128,168 C150,118 190,192 212,140 C232,92 262,158 274,116" stroke="#C98A2C" stroke-width="13"/>
    <path d="M138,192 C165,150 200,212 226,164 C250,120 276,176 290,150" stroke="#DDA23F" stroke-width="13"/>
    <path d="M150,146 C172,106 206,164 238,118" stroke="#B9791F" stroke-width="11"/>
  </g>
  <circle cx="166" cy="178" r="7" fill="#A6472F"/>
  <circle cx="236" cy="188" r="6" fill="#A6472F"/>
  <circle cx="202" cy="206" r="6" fill="#A6472F"/>
  <ellipse cx="182" cy="128" rx="9" ry="4.5" fill="#33472F" transform="rotate(-30 182 128)"/>
  <ellipse cx="256" cy="142" rx="8" ry="4" fill="#33472F" transform="rotate(25 256 142)"/>

</svg>